<?xml version="1.0" encoding="utf-8"?>
<!-- Svg Vector Icons : http://www.onlinewebfonts.com/icon -->
<!DOCTYPE svg PUBLIC "-//W3C//DTD SVG 1.1//EN" "http://www.w3.org/Graphics/SVG/1.1/DTD/svg11.dtd">
<svg version="1.1" xmlns="http://www.w3.org/2000/svg" xmlns:xlink="http://www.w3.org/1999/xlink" x="0px" y="0px" viewBox="0 0 1000 1000" enable-background="new 0 0 1000 1000" xml:space="preserve" fill="#764af1">
<metadata> Svg Vector Icons : http://www.onlinewebfonts.com/icon </metadata>
<g><path d="M730.2,268.5c18.2,0,32.9,14.7,32.9,32.9l-59.6,655.7c0,18.2-14.7,32.9-32.9,32.9H329.3c-18.2,0-32.9-14.7-32.9-32.9l-59.6-655.7c0-18.2,14.7-32.9,32.9-32.9h294l34.8-177.4L756.5,10l-11.4,42.4l-117.2,58.8l-30.6,157.4H730.2L730.2,268.5z M549.4,498.7h131.5l-37,425.5H356.1l-37-425.5h196.8l41.1-197.3H269.8l59.6,655.7h341.2l59.6-655.7H590.4L549.4,498.7L549.4,498.7z"/></g>
</svg>