<?xml version="1.0" encoding="utf-8"?>
<!-- Svg Vector Icons : http://www.onlinewebfonts.com/icon -->
<!DOCTYPE svg PUBLIC "-//W3C//DTD SVG 1.1//EN" "http://www.w3.org/Graphics/SVG/1.1/DTD/svg11.dtd">
<svg version="1.1" xmlns="http://www.w3.org/2000/svg" fill="#764af1" xmlns:xlink="http://www.w3.org/1999/xlink" x="0px" y="0px" viewBox="0 0 1000 1000" enable-background="new 0 0 1000 1000" xml:space="preserve">
<metadata> Svg Vector Icons : http://www.onlinewebfonts.com/icon </metadata>
<g><path d="M382.1,33.4v298.5c0,13.6-11.1,24.7-24.8,24.7c-13.8,0-24.8-11.1-24.8-24.7V14.1c-7.9-1.4-16.2-2.2-24.4-2.2c-10.7,0-21.2,1.3-31.2,3.6v316.4c0,13.6-11.1,24.7-24.8,24.7c-13.8,0-24.9-11.1-24.9-24.7V38.1c-34.7,25.1-57.4,65.9-57.4,112.1v163.6c0,58.2,36,108,87,128.4c0,0.9-0.1,1.8-0.1,2.6l-26.9,468.1c0,42.6,34.6,77.1,77,77.1c42.7,0,77.1-34.5,77.1-77.1l-24.5-468.1c0-0.9-0.1-1.7-0.1-2.6c50.9-20.4,87.1-70.1,87.1-128.4V150.3C446.5,101.1,420.8,58,382.1,33.4z"/><path d="M811,583.1l0.5,0.6l-4.2-573.6c-77.4-2.2-142,58.6-144.2,136.1l-28.4,249.9c-1.7,59.2,25.9,105.3,64.7,133.8l-23.5,383.1c0,42.6,34.5,77.1,77.1,77.1c42.6,0,77.2-34.5,77.2-77.1L811,583.1z"/></g>
</svg>