<?xml version="1.0" encoding="utf-8"?>
<!-- Svg Vector Icons : http://www.onlinewebfonts.com/icon -->
<!DOCTYPE svg PUBLIC "-//W3C//DTD SVG 1.1//EN" "http://www.w3.org/Graphics/SVG/1.1/DTD/svg11.dtd">
<svg version="1.1" xmlns="http://www.w3.org/2000/svg" fill="#764af1" xmlns:xlink="http://www.w3.org/1999/xlink" x="0px" y="0px" viewBox="0 0 1000 1000" enable-background="new 0 0 1000 1000" xml:space="preserve">
<metadata> Svg Vector Icons : http://www.onlinewebfonts.com/icon </metadata>
<g><g transform="translate(0.000000,512.000000) scale(0.100000,-0.100000)"><path d="M7765.9,4386.4c-580-348.3-1062.3-641.2-1073.8-650.8c-11.5-9.6-68.9-126.3-130.2-260.3l-109.1-245l-204.8,201c-413.5,403.9-888.1,645-1458.5,738.8c-269.9,45.9-748.4,26.8-1006.8-38.3c-847.9-212.5-1515.9-779-1847.1-1571.4c-82.3-195.2-158.9-491.9-179.9-687.1l-13.4-126.3h-354.1h-354.1l-55.5-55.5l-55.5-55.5v-490v-490l55.5-61.3l55.5-63.2l365.6-5.7c201-3.8,365.6-13.4,365.6-19.1c1.9-7.7,179.9-1175.2,400-2595.5l396.2-2582.1l61.2-53.6l61.3-55.5h1701.6h1701.6l57.4,47.9c30.6,26.8,61.3,67,68.9,91.9c5.7,24.9,183.7,1167.6,394.3,2540c210.5,1374.3,388.6,2526.6,394.3,2561l11.5,61.3h323.5c350.3,0,426.8,15.3,484.3,97.6c26.8,38.3,30.6,112.9,30.6,530.2v486.2l-55.5,55.5L7741,1747h-354.1h-354.1l-13.4,126.3c-26.8,256.5-147.4,656.5-269.9,890c-28.7,57.4-26.8,63.2,109.1,373.2l139.7,312l995.3,597.2c549.3,327.3,1016.4,616.3,1041.2,643.1c47.9,51.7,55.5,145.5,19.2,225.9c-26.8,59.3-107.2,105.3-181.8,105.3C8835.9,5020,8481.8,4817.1,7765.9,4386.4z M4906.3,3729.9c541.7-137.8,991.5-436.4,1292-857.5l59.3-82.3L6041.3,2302c-118.7-268-225.9-503.4-235.4-520.6c-21-32.5-128.2-34.4-1839.4-34.4c-1303.5,0-1818.4,5.7-1818.4,21.1c0,67,86.1,424.9,134,557c281.4,767.5,985.7,1336,1803.1,1450.9C4295.7,3806.5,4699.6,3783.5,4906.3,3729.9z M6598.3,1921.1c15.3-88,24.9-164.6,21-168.4c-3.8-3.8-88-3.8-189.5-1.9l-183.8,5.7l63.2,143.6c36.3,78.5,91.9,204.8,126.3,277.5l63.2,134l36.4-114.8C6554.3,2133.6,6583,2009.2,6598.3,1921.1z M5599.2,1312.5c-7.7-19.1-45.9-107.2-84.2-197.1l-72.8-162.7l-2057.6-5.7L1325.1,943v201v201h2143.8C5501.6,1345,5610.7,1343.1,5599.2,1312.5z M7450.1,1144V943h-782.9h-782.8l88,201l90,201h694.8h692.9V1144z M5231.7,479.8c-9.6-24.9-212.5-478.5-449.8-1010.6l-430.7-966.6l-928.3-5.7l-930.2-3.8l-9.6,42.1c-15.3,72.7-296.7,1916-296.7,1952.3c0,32.5,67,34.5,1531.3,34.5h1531.2L5231.7,479.8z M6588.7,487.5c0-36.4-281.4-1879.6-296.7-1950.4l-9.6-44h-736.9c-405.8,0-736.9,5.7-736.9,15.3c0,7.7,199.1,463.2,444.1,1014.5L5696.8,522h446C6560,522,6588.7,520,6588.7,487.5z M4140.7-1970.2c-9.6-24.9-185.7-423-392.4-886.2c-273.7-616.3-375.2-861.3-375.2-914.9c0-145.5,153.1-227.8,296.7-162.7c59.3,26.8,82.3,70.8,576.1,1186.7l361.8,819.2h809.6h807.7l-9.6-42.1c-3.8-24.9-86.1-557-181.8-1182.9s-178-1158-181.8-1182.9l-9.6-42.1H4387.6H2932.9l-9.6,44c-3.8,23-86.1,555.1-181.8,1181s-178,1158-181.8,1182.9l-9.6,42.1H3354h803.9L4140.7-1970.2z"/></g></g>
</svg>